<svg width="108" height="94" viewBox="0 0 108 94" fill="none" xmlns="http://www.w3.org/2000/svg">
    <rect x="13.6898" y="32.0856" width="87.2727" height="47.9144" rx="23.9572" fill="#FEDF14" />
    <rect x="88.984" y="28.6631" width="11.9786" height="34.6524" rx="5.9893" fill="#FEDF14" />
    <rect x="13.6898" width="43.6364" height="77.0053" rx="21.8182" fill="#FEDF14" />
    <rect y="32.0856" width="11.9786" height="29.5187" rx="5.9893" transform="rotate(-90 0 32.0856)" fill="#FF7421" />
    <path d="M82.9947 45.7754C82.9947 52.3562 80.2903 58.6674 75.4766 63.3207C70.6628 67.9741 64.1339 70.5883 57.3262 70.5883C50.5185 70.5883 43.9897 67.9741 39.1759 63.3207C34.3621 58.6674 31.6578 52.3562 31.6578 45.7754L57.3262 45.7754L82.9947 45.7754Z" fill="#FF7421" />
    <circle cx="33.1551" cy="16.4706" r="3.63636" fill="black" />
    <rect x="7.50134" y="74.0201" width="100" height="19" rx="9.5" fill="#095256" />
    <mask id="mask0_2_160" style="mask-type:alpha" maskUnits="userSpaceOnUse" x="7" y="74" width="101" height="20">
        <rect x="7.50134" y="74.0201" width="100" height="19" rx="9.5" fill="#095256" />
    </mask>
    <g mask="url(#mask0_2_160)">
        <path d="M0.995605 68.2189L31.5979 98.8212" stroke="#5AAA95" stroke-width="5" />
        <line x1="23.3657" y1="66.4512" x2="53.968" y2="97.0535" stroke="#5AAA95" stroke-width="5" />
        <line x1="43.968" y1="66.4512" x2="74.5703" y2="97.0535" stroke="#5AAA95" stroke-width="5" />
        <line x1="64.5703" y1="66.4512" x2="95.1725" y2="97.0535" stroke="#5AAA95" stroke-width="5" />
        <line x1="85.1726" y1="66.4512" x2="115.775" y2="97.0535" stroke="#5AAA95" stroke-width="5" />
    </g>
</svg>